<svg version="1.0" xmlns="http://www.w3.org/2000/svg" width="800.000000" height="800.000000" viewBox="0 0 800.000000 800.000000" preserveAspectRatio="xMidYMid meet">
  <metadata>
    <rdf:RDF xmlns:rdf="http://www.w3.org/1999/02/22-rdf-syntax-ns#" xmlns:rdfs="http://www.w3.org/2000/01/rdf-schema#" xmlns:dc="http://purl.org/dc/elements/1.1/">
      <rdf:Description dc:format="image/svg+xml" dc:Label="1" dc:ContentProducer="001191330110MACRLGPT8B00000" dc:ProduceID="447836193" dc:ReservedCode1="6jVWVBrcP8BMhXsjxFL9liM1keEygUS3EM+urVspwlg=" dc:ContentPropagator="001191330110MACRLGPT8B00000" dc:PropagateID="447836193" dc:ReservedCode2="6jVWVBrcP8BMhXsjxFL9liM1keEygUS3EM+urVspwlg="/>
    </rdf:RDF>
  </metadata>
  <g transform="translate(-110.432691,904.541561) scale(0.130079,-0.130079)" fill="#000000" stroke="none">
    <path d="M3763 5462 c-88 -31 -144 -80 -191 -167 l-27 -50 0 -1365 0 -1365 26 -50 c37 -69 92 -123 158 -154 52 -24 66 -26 191 -26 110 0 145 4 189 20 72 26 143 92 178 163 l28 57 0 1355 0 1355 -22 47 c-32 70 -94 131 -166 164 -56 26 -74 29 -187 31 -101 3 -135 0 -177 -15z m237 -302 c13 -8 15 -162 18 -1270 1 -864 -1 -1267 -8 -1280 -9 -17 -21 -20 -80 -20 -58 0 -71 3 -80 19 -7 13 -10 429 -10 1275 0 1127 2 1256 16 1270 17 18 119 22 144 6z"/>
    <path d="M2550 4691 c-86 -28 -166 -97 -212 -183 l-23 -43 -3 -957 -2 -956 21 -59 c33 -88 115 -165 203 -192 94 -29 238 -29 331 0 89 27 172 106 204 191 20 57 21 73 24 950 2 491 1 925 -4 965 -4 39 -17 90 -29 113 -29 57 -95 120 -155 150 -45 22 -65 25 -190 27 -77 1 -151 -1 -165 -6z m220 -311 c20 -20 20 -33 20 -893 0 -666 -3 -876 -12 -885 -14 -14 -126 -16 -146 -3 -12 7 -14 163 -14 891 -1 1001 -9 910 84 910 35 0 54 -6 68 -20z"/>
    <path d="M4989 4344 c-62 -19 -136 -71 -176 -123 -65 -84 -64 -66 -61 -922 3 -769 3 -774 25 -821 30 -66 96 -133 162 -165 54 -27 62 -28 206 -28 149 0 150 0 211 32 71 37 117 86 153 163 l26 55 3 759 c2 516 -1 776 -8 810 -22 103 -117 201 -229 236 -77 24 -241 26 -312 4z m230 -308 c8 -9 10 -208 9 -727 l-3 -714 -80 0 -80 0 -3 715 c-1 393 0 721 3 728 6 17 139 16 154 -2z"/>
  </g>
</svg>