<svg version="1.0" xmlns="http://www.w3.org/2000/svg" width="800.000000" height="800.000000" viewBox="0 0 800.000000 800.000000" preserveAspectRatio="xMidYMid meet">
  <metadata>
    <rdf:RDF xmlns:rdf="http://www.w3.org/1999/02/22-rdf-syntax-ns#" xmlns:rdfs="http://www.w3.org/2000/01/rdf-schema#" xmlns:dc="http://purl.org/dc/elements/1.1/">
      <rdf:Description dc:format="image/svg+xml" dc:Label="1" dc:ContentProducer="001191330110MACRLGPT8B00000" dc:ProduceID="447834339" dc:ReservedCode1="A1mnEpMyb8h68VibTVxy1DGJRjGGllSGGcRkXQg9baM=" dc:ContentPropagator="001191330110MACRLGPT8B00000" dc:PropagateID="447834339" dc:ReservedCode2="A1mnEpMyb8h68VibTVxy1DGJRjGGllSGGcRkXQg9baM="/>
    </rdf:RDF>
  </metadata>
  <g transform="translate(-227.733168,886.050869) scale(0.133200,-0.133200)" fill="#000000" stroke="none">
    <path d="M3782 5203 c-47 -23 -84 -75 -89 -127 -7 -58 1 -87 33 -126 55 -65 -3 -61 969 -61 986 0 927 -4 983 69 22 30 27 46 27 96 0 73 -25 115 -85 146 -38 19 -62 20 -922 20 -797 0 -886 -2 -916 -17z"/>
    <path d="M3565 4771 c-88 -25 -143 -54 -217 -115 -81 -67 -156 -177 -189 -277 -22 -67 -24 -89 -23 -239 3 -240 72 -1461 89 -1554 42 -233 229 -433 460 -491 89 -23 1958 -22 2054 0 203 48 382 223 445 435 18 61 26 160 56 705 12 204 27 476 35 605 19 308 19 437 -1 514 -45 176 -189 334 -371 408 l-58 23 -1110 2 c-1026 2 -1115 0 -1170 -16z m2241 -335 c62 -29 120 -95 139 -158 15 -52 18 12 -56 -1263 -11 -198 -24 -376 -30 -395 -15 -57 -51 -112 -97 -147 -87 -66 -51 -64 -1073 -61 -1037 3 -955 -3 -1044 79 -87 80 -96 118 -115 469 -5 113 -22 405 -35 650 -28 497 -30 621 -13 671 16 47 57 103 95 129 74 51 37 49 1143 49 l1035 1 51 -24z"/>
    <path d="M4620 4058 c-80 -55 -89 -98 -86 -436 0 -100 -1 -182 -4 -182 -3 0 -26 21 -50 46 -57 58 -107 84 -163 84 -110 0 -189 -124 -142 -223 21 -45 426 -434 471 -453 44 -18 92 -17 131 4 42 23 429 406 449 445 21 40 14 115 -15 156 -28 39 -89 71 -136 71 -49 0 -90 -23 -152 -83 l-53 -51 0 255 c0 248 -1 257 -23 300 -44 83 -155 116 -227 67z"/>
  </g>
</svg>