<svg version="1.0" xmlns="http://www.w3.org/2000/svg" width="800.000000" height="800.000000" viewBox="0 0 800.000000 800.000000" preserveAspectRatio="xMidYMid meet">
  <metadata>
    <rdf:RDF xmlns:rdf="http://www.w3.org/1999/02/22-rdf-syntax-ns#" xmlns:rdfs="http://www.w3.org/2000/01/rdf-schema#" xmlns:dc="http://purl.org/dc/elements/1.1/">
      <rdf:Description dc:format="image/svg+xml" dc:Label="1" dc:ContentProducer="001191330110MACRLGPT8B00000" dc:ProduceID="447834341" dc:ReservedCode1="NwAMv0FwAzz2saN+Y640Xoo7YRGo6+1Zsm/vAI42Uh4=" dc:ContentPropagator="001191330110MACRLGPT8B00000" dc:PropagateID="447834341" dc:ReservedCode2="NwAMv0FwAzz2saN+Y640Xoo7YRGo6+1Zsm/vAI42Uh4="/>
    </rdf:RDF>
  </metadata>
  <g transform="translate(-74.938865,840.565845) scale(0.113494,-0.113494)" fill="#000000" stroke="none">
    <path d="M3490 5505 c-215 -60 -843 -453 -1026 -642 -64 -66 -110 -157 -125 -250 -14 -88 5 -187 53 -273 54 -95 174 -244 329 -404 l149 -155 0 -394 c0 -430 6 -502 56 -637 71 -190 236 -363 425 -442 141 -59 156 -60 834 -62 565 -1 627 1 704 17 266 57 455 220 557 479 48 121 54 197 54 636 l0 406 154 155 c179 182 295 326 345 431 35 72 36 79 36 185 0 104 -2 114 -32 176 -18 36 -51 87 -73 112 -134 152 -666 501 -950 622 -204 87 -333 68 -501 -75 -140 -120 -232 -154 -353 -130 -83 16 -139 47 -226 125 -100 90 -176 126 -278 131 -50 3 -96 -1 -132 -11z m203 -363 c166 -156 366 -227 564 -203 149 18 261 67 377 165 90 76 107 86 147 86 117 0 845 -454 920 -573 27 -43 20 -104 -17 -159 -46 -66 -175 -211 -324 -363 -189 -193 -180 -163 -180 -580 l0 -324 -995 -1 -994 0 -3 342 c-3 326 -4 345 -24 389 -15 31 -69 94 -159 185 -136 137 -282 306 -324 374 -26 43 -27 95 -2 137 50 81 386 317 682 479 145 78 180 92 237 93 38 1 49 -5 95 -47z m1451 -2284 c-31 -102 -112 -196 -209 -244 -105 -52 -178 -56 -820 -51 -481 3 -546 6 -595 21 -109 36 -213 124 -264 225 -14 28 -26 55 -26 61 0 7 306 10 961 10 l960 0 -7 -22z"/>
  </g>
</svg>