<svg version="1.0" xmlns="http://www.w3.org/2000/svg" width="800.000000" height="800.000000" viewBox="0 0 800.000000 800.000000" preserveAspectRatio="xMidYMid meet">
  <metadata>
    <rdf:RDF xmlns:rdf="http://www.w3.org/1999/02/22-rdf-syntax-ns#" xmlns:rdfs="http://www.w3.org/2000/01/rdf-schema#" xmlns:dc="http://purl.org/dc/elements/1.1/">
      <rdf:Description dc:format="image/svg+xml" dc:Label="1" dc:ContentProducer="001191330110MACRLGPT8B00000" dc:ProduceID="447834342" dc:ReservedCode1="h9c/+bFRuRgZArSy8LfbAmJeoeKHEOMH6CkgHxnnnXE=" dc:ContentPropagator="001191330110MACRLGPT8B00000" dc:PropagateID="447834342" dc:ReservedCode2="h9c/+bFRuRgZArSy8LfbAmJeoeKHEOMH6CkgHxnnnXE="/>
    </rdf:RDF>
  </metadata>
  <g transform="translate(-92.690264,900.677769) scale(0.125042,-0.125042)" fill="#000000" stroke="none">
    <path d="M4705 5640 c-85 -21 -112 -43 -417 -347 -354 -353 -352 -350 -353 -498 0 -145 3 -149 357 -501 347 -344 339 -339 493 -339 76 0 97 4 137 25 71 38 637 601 668 665 35 73 40 198 10 280 -21 56 -43 81 -309 348 -157 159 -304 301 -326 317 -72 50 -179 71 -260 50z m342 -572 c145 -145 263 -267 263 -273 0 -13 -521 -525 -535 -525 -5 0 -129 119 -275 265 l-265 265 268 265 c147 146 271 265 275 265 4 0 125 -118 269 -262z"/>
    <path d="M2503 5502 c-99 -35 -170 -101 -216 -199 -22 -47 -22 -53 -22 -508 0 -455 0 -461 22 -508 34 -71 113 -150 186 -183 l62 -29 460 0 c420 0 465 2 515 18 73 25 132 70 175 132 64 92 65 101 65 576 0 411 -1 431 -21 485 -32 85 -93 153 -173 194 l-69 35 -466 2 c-429 3 -470 1 -518 -15z m909 -319 c17 -15 18 -40 18 -383 0 -300 -3 -370 -14 -386 -14 -18 -32 -19 -403 -22 -381 -3 -389 -2 -411 18 -22 21 -22 21 -22 387 0 327 2 368 17 385 15 17 41 18 406 18 349 0 392 -2 409 -17z"/>
    <path d="M2635 3800 c-114 -5 -123 -7 -185 -41 -86 -47 -143 -116 -170 -207 -20 -66 -21 -87 -18 -493 3 -417 3 -425 26 -482 30 -73 99 -144 177 -183 l60 -29 480 0 480 0 57 27 c69 32 135 99 174 176 l29 57 0 460 0 460 -30 58 c-37 74 -118 149 -189 176 -51 19 -81 20 -413 23 -197 2 -412 1 -478 -2z m774 -334 c21 -19 21 -26 21 -387 l0 -368 -22 -15 c-19 -14 -75 -16 -403 -16 -328 0 -384 2 -403 16 l-22 15 0 368 c0 339 1 369 18 384 22 20 62 22 468 22 303 0 323 -1 343 -19z"/>
    <path d="M4354 3800 c-94 -8 -168 -45 -233 -115 -91 -101 -91 -99 -91 -601 0 -409 1 -438 20 -491 24 -68 59 -115 125 -165 87 -66 108 -68 598 -68 422 0 439 1 503 22 88 29 161 95 206 186 l33 67 0 450 0 450 -27 57 c-47 100 -159 190 -255 203 -58 8 -798 12 -879 5z m821 -335 l25 -24 0 -361 c0 -347 -1 -361 -20 -380 -19 -19 -33 -20 -408 -20 -377 0 -389 1 -410 20 -22 21 -22 23 -22 378 0 405 -1 398 73 405 23 2 199 4 390 5 l348 2 24 -25z"/>
  </g>
</svg>