<?xml version="1.0" standalone="no"?><!DOCTYPE svg PUBLIC "-//W3C//DTD SVG 1.1//EN" "http://www.w3.org/Graphics/SVG/1.1/DTD/svg11.dtd"><svg t="1753868763403" class="icon" viewBox="0 0 1024 1024" version="1.1" xmlns="http://www.w3.org/2000/svg" p-id="7451" xmlns:xlink="http://www.w3.org/1999/xlink" width="200" height="200"><path d="M512 42.666667l354.816 118.272a42.666667 42.666667 0 0 1 29.184 40.490666V512c0 172.8-128 329.258667-384 469.333333-256-140.074667-384-296.533333-384-469.333333V201.386667a42.666667 42.666667 0 0 1 29.184-40.448L512 42.666667z m0 89.941333L213.333333 232.192V512l0.298667 12.672c3.114667 63.146667 29.525333 122.922667 76.373333 180.224C341.333333 767.573333 415.701333 826.581333 512 883.242667c96.341333-56.661333 170.666667-115.712 221.952-178.346667C783.957333 643.84 810.666667 579.882667 810.666667 512V232.192l-298.666667-99.584z" fill="#bfbfbf" p-id="7452"></path></svg>