<?xml version="1.0" standalone="no"?><!DOCTYPE svg PUBLIC "-//W3C//DTD SVG 1.1//EN" "http://www.w3.org/Graphics/SVG/1.1/DTD/svg11.dtd"><svg t="1753866824980" class="icon" viewBox="0 0 1024 1024" version="1.1" xmlns="http://www.w3.org/2000/svg" p-id="5576" xmlns:xlink="http://www.w3.org/1999/xlink" width="200" height="200"><path d="M842.79296 580.11648a370.44224 370.44224 0 1 0-552.87808 129.6384l2.74432 79.62624a85.85216 85.85216 0 0 0 84.992 82.08384h275.53792a85.93408 85.93408 0 0 0 84.992-87.94112l-2.58048-74.91584a369.8688 369.8688 0 0 0 107.19232-128.49152zM394.24 496.27136l76.63616 81.46944v211.47648H377.6512a2.8672 2.8672 0 0 1-2.78528-2.6624l-3.44064-100.02432a41.65632 41.65632 0 0 0-18.39104-32.89088 288.19456 288.19456 0 1 1 317.97248 0c-11.71456 7.7824-18.8416 21.62688-18.35008 35.6352l3.2768 96.95232c0 1.55648-1.10592 2.99008-2.74432 2.99008h-100.06528V579.1744l85.93408-81.1008a41.53344 41.53344 0 0 0 1.6384-58.1632 41.53344 41.53344 0 0 0-58.1632-1.6384l-68.8128 65.00352-59.5968-63.32416a41.53344 41.53344 0 0 0-58.1632-1.76128 41.7792 41.7792 0 0 0-1.72032 58.1632zM372.08064 940.15488c0 22.36416 18.71872 41.08288 41.12384 41.08288h197.59104c22.40512 0 41.12384-18.71872 41.12384-41.08288 0-22.40512-18.71872-41.1648-41.12384-41.1648H413.20448c-22.40512 0-41.12384 18.75968-41.12384 41.1648z" fill="#bfbfbf" fill-opacity=".85" p-id="5577"></path></svg>