<?xml version="1.0" standalone="no"?><!DOCTYPE svg PUBLIC "-//W3C//DTD SVG 1.1//EN" "http://www.w3.org/Graphics/SVG/1.1/DTD/svg11.dtd"><svg t="1753867180266" class="icon" viewBox="0 0 1024 1024" version="1.1" xmlns="http://www.w3.org/2000/svg" p-id="28646" xmlns:xlink="http://www.w3.org/1999/xlink" width="200" height="200"><path d="M182.727111 133.063111h220.956445c36.408889 0 65.877333 29.525333 65.877333 65.877333V419.271111c0 36.408889-29.468444 65.877333-65.877333 65.877333H182.727111c-36.408889 0-65.934222-29.468444-65.934222-65.877333V199.111111c0-36.408889 29.525333-65.877333 65.934222-65.877333v-0.170667z m22.755556 43.975111a43.975111 43.975111 0 0 0-44.032 44.032V397.198222c0 24.291556 19.683556 43.975111 44.032 43.975111h176.128a43.975111 43.975111 0 0 0 43.975111-43.975111V221.184a43.975111 43.975111 0 0 0-43.975111-43.975111l-176.128-0.170667z m-22.755556 374.215111h220.956445c36.408889 0 65.877333 29.525333 65.877333 65.877334v220.330666c0 36.408889-29.468444 65.877333-65.877333 65.877334H182.727111c-36.408889 0-65.934222-29.468444-65.934222-65.877334v-220.16c0-36.408889 29.525333-65.877333 65.934222-65.877333V551.253333z m21.902222 43.975111a43.975111 43.975111 0 0 0-43.975111 43.975112v176.184888c0 24.291556 19.683556 43.975111 43.975111 43.975112h176.924445a44.145778 44.145778 0 0 0 44.032-43.975112v-176.184888a43.975111 43.975111 0 0 0-43.975111-43.975112H204.629333z m395.434667-43.975111h221.639111c36.408889 0 65.877333 29.525333 65.877333 65.877334v220.330666c0 36.408889-29.468444 65.877333-65.877333 65.877334h-220.16c-36.408889 0-65.877333-29.468444-65.877333-65.877334v-220.16c0-36.408889 29.525333-65.877333 65.877333-65.877333l-1.479111-0.170667z m22.072889 43.975111a43.975111 43.975111 0 0 0-43.975111 43.975112v176.184888a44.145778 44.145778 0 0 0 43.975111 43.975112h177.664a43.975111 43.975111 0 0 0 43.975111-43.975112v-176.184888a43.975111 43.975111 0 0 0-43.975111-43.975112h-177.664z m123.790222-461.368888l140.003556 140.060444a65.934222 65.934222 0 0 1 0 93.411556L745.927111 507.448889a65.934222 65.934222 0 0 1-93.468444 0L512.398222 367.331556a65.934222 65.934222 0 0 1 0-93.411556l140.060445-140.060444a65.934222 65.934222 0 0 1 93.297777 0h0.170667z m-14.222222 45.852444a43.975111 43.975111 0 0 0-62.236445 0L560.526222 288.597333a43.975111 43.975111 0 0 0 0 62.293334l109.112889 108.885333a43.975111 43.975111 0 0 0 62.236445 0l108.942222-108.885333a43.975111 43.975111 0 0 0 0-62.293334l-109.112889-108.885333z" fill="#ffffff" p-id="28647"></path></svg>