<?xml version="1.0" standalone="no"?><!DOCTYPE svg PUBLIC "-//W3C//DTD SVG 1.1//EN" "http://www.w3.org/Graphics/SVG/1.1/DTD/svg11.dtd"><svg t="1753868794515" class="icon" viewBox="0 0 1024 1024" version="1.1" xmlns="http://www.w3.org/2000/svg" p-id="10465" xmlns:xlink="http://www.w3.org/1999/xlink" width="200" height="200"><path d="M991.771995 588.245522l-65.167209-17.450441c8.410554 55.477522 5.956665 113.51331-9.480932 171.172521-15.458063 57.659211-42.367947 109.150956-77.374228 152.987347l65.167209 17.450441c32.32215-45.514613 57.679677-97.069803 72.969918-154.162102C993.19746 701.172477 997.015416 643.828444 991.771995 588.245522z" p-id="10466" fill="#ffffff"></path><path d="M857.640088 101.261265 563.997258 206.132754l0 52.436256 0 398.095787c-34.6778-13.901615-76.800153-16.784268-119.17731-5.432733-89.518826 23.994484-146.275481 102.397135-126.790708 175.11532 19.484773 72.739675 107.850333 112.255667 197.348694 88.26016 84.622306-22.662139 139.968845-93.963045 129.310088-163.139567l3.206018 0 0-491.40187 209.745025-74.909084L857.639065 101.261265z" p-id="10467" fill="#ffffff"></path><path d="M45.949518 508.542248c-15.310707 57.071833-19.128663 114.415866-13.885242 169.997766l65.167209 17.450441c-8.410554-55.477522-5.956665-113.492844 9.501398-171.172521 15.436574-57.659211 42.34748-109.13049 77.353762-152.987347l-65.167209-17.450441C86.59831 399.894759 61.239759 451.449949 45.949518 508.542248z" p-id="10468" fill="#ffffff"></path><path d="M856.968799 606.786807l-64.643276-17.324574c4.635577 34.692127 2.726088 70.830185-6.900154 106.739023-9.627265 35.907815-26.02984 68.166519-47.402613 95.874581l64.663742 17.324574c19.044752-29.091572 34.020838-61.518099 43.522236-96.92347C855.689666 677.072593 858.919221 641.499399 856.968799 606.786807z" p-id="10469" fill="#ffffff"></path><path d="M197.888999 538.76662c-9.480932 35.405371-12.710486 70.977541-10.780531 105.690134l64.664765 17.324574c-4.656043-34.692127-2.727111-70.830185 6.900154-106.739023 9.627265-35.907815 26.028816-68.166519 47.402613-95.874581l-64.663742-17.324574C222.36546 470.935746 207.390397 503.362272 197.888999 538.76662z" p-id="10470" fill="#ffffff"></path></svg>