<?xml version="1.0" standalone="no"?><!DOCTYPE svg PUBLIC "-//W3C//DTD SVG 1.1//EN" "http://www.w3.org/Graphics/SVG/1.1/DTD/svg11.dtd"><svg t="1753867028371" class="icon" viewBox="0 0 1024 1024" version="1.1" xmlns="http://www.w3.org/2000/svg" p-id="18121" xmlns:xlink="http://www.w3.org/1999/xlink" width="200" height="200"><path d="M751.808 163.498667l-7.637333 19.498666a74.666667 74.666667 0 0 0 96.832 96.832l19.498666-7.637333 149.312 149.290667-588.330666 588.330666-149.290667-149.333333 7.637333-19.477333a74.666667 74.666667 0 0 0-96.832-96.832l-19.498666 7.637333-149.312-149.290667L602.517333 14.186667l149.290667 149.333333z m-73.557333 16.96l-75.733334-75.733334-98.069333 98.026667 52.8 52.8L512 300.821333l-52.8-52.8L104.704 602.517333l75.733333 75.733334a138.645333 138.645333 0 0 1 127.914667 37.397333 138.645333 138.645333 0 0 1 37.397333 127.893333l75.733334 75.733334 354.496-354.474667L723.2 512l45.269333-45.248 52.8 52.8 98.048-98.069333-75.733333-75.733334a138.645333 138.645333 0 0 1-127.914667-37.397333 138.645333 138.645333 0 0 1-37.397333-127.893333zM723.2 421.482667l-45.226667 45.269333-120.704-120.682667 45.269334-45.248 120.661333 120.661334z m-271.509333 0l45.226666 45.269333-150.826666 150.826667-45.248-45.226667 150.826666-150.869333z m105.6 105.6l45.226666 45.248-150.826666 150.848-45.269334-45.226667 150.848-150.869333z" fill="#ffffff" p-id="18122"></path></svg>