<?xml version="1.0" standalone="no"?><!DOCTYPE svg PUBLIC "-//W3C//DTD SVG 1.1//EN" "http://www.w3.org/Graphics/SVG/1.1/DTD/svg11.dtd"><svg t="1753866929838" class="icon" viewBox="0 0 1024 1024" version="1.1" xmlns="http://www.w3.org/2000/svg" p-id="11654" xmlns:xlink="http://www.w3.org/1999/xlink" width="200" height="200"><path d="M878.886 568.138c0 201.397-163.25 364.646-364.646 364.646S149.485 769.535 149.485 568.138c0-192.076 148.583-349.076 336.902-363.31 0-0.433-0.253-0.902-0.253-1.408v-56.066H373.966c-15.497 0-28.033-12.535-28.033-28.105 0-15.498 12.536-28.033 28.033-28.033h280.511c15.462 0 28.105 12.535 28.105 28.033 0 15.57-12.643 28.105-28.105 28.105H542.31v56.03c0 0.542-0.253 0.975-0.253 1.409 188.248 14.27 336.83 171.269 336.83 363.345zM514.24 259.522c-170.438 0-308.616 138.142-308.616 308.616S343.766 876.754 514.24 876.754c170.365 0 308.507-138.142 308.507-308.616S684.605 259.522 514.24 259.522z m0 392.788c-46.53 0-84.172-37.715-84.172-84.172 0-36.558 23.482-67.445 56.03-79.005v-145.44c0-15.497 12.536-28.033 28.106-28.033 15.497 0 28.033 12.536 28.033 28.034v145.439c32.657 11.56 56.138 42.447 56.138 79.005 0 46.457-37.715 84.172-84.135 84.172z" fill="#ffffff" p-id="11655"></path></svg>