<svg version="1.0" xmlns="http://www.w3.org/2000/svg" width="800.000000" height="800.000000" viewBox="0 0 800.000000 800.000000" preserveAspectRatio="xMidYMid meet">
  <metadata>
    <rdf:RDF xmlns:rdf="http://www.w3.org/1999/02/22-rdf-syntax-ns#" xmlns:rdfs="http://www.w3.org/2000/01/rdf-schema#" xmlns:dc="http://purl.org/dc/elements/1.1/">
      <rdf:Description dc:format="image/svg+xml" dc:Label="1" dc:ContentProducer="001191330110MACRLGPT8B00000" dc:ProduceID="447836194" dc:ReservedCode1="JsQPonfRMja5ecVO+ZJywIqSZ4SDe/1NhRMucxBRITc=" dc:ContentPropagator="001191330110MACRLGPT8B00000" dc:PropagateID="447836194" dc:ReservedCode2="JsQPonfRMja5ecVO+ZJywIqSZ4SDe/1NhRMucxBRITc="/>
    </rdf:RDF>
  </metadata>
  <g transform="translate(-22.785146,848.840722) scale(0.111406,-0.111406)" fill="#000000" stroke="none">
    <path d="M2499 5869 c-273 -40 -501 -248 -570 -517 -18 -72 -19 -122 -19 -1317 0 -1211 1 -1244 20 -1320 27 -107 79 -206 148 -287 68 -80 127 -126 219 -173 137 -68 135 -68 684 -72 344 -3 510 -1 538 7 50 13 109 63 127 107 35 83 -1 184 -79 226 -42 22 -47 22 -547 27 l-505 5 -57 28 c-67 33 -121 90 -157 166 l-26 56 0 1225 0 1225 28 60 c36 77 110 147 183 175 55 20 64 20 1322 18 l1267 -3 48 -23 c61 -31 128 -98 159 -159 l23 -48 5 -580 c6 -644 2 -609 74 -673 85 -75 222 -44 274 62 22 43 22 49 22 599 0 640 -1 655 -76 807 -85 172 -248 308 -444 367 -50 16 -168 17 -1330 19 -701 1 -1300 -2 -1331 -7z"/>
    <path d="M4572 3919 c-52 -26 -687 -672 -716 -727 -36 -70 -19 -175 40 -245 26 -31 518 -541 597 -619 51 -51 89 -69 147 -70 101 0 171 62 178 161 3 42 -1 67 -13 92 -10 18 -98 117 -196 220 -99 103 -179 189 -179 191 0 1 240 3 533 4 591 0 563 -3 625 69 38 42 46 70 40 135 -6 57 -41 110 -91 138 -29 15 -82 17 -559 22 l-527 5 169 175 c94 96 179 192 190 212 78 146 -89 313 -238 237z"/>
  </g>
</svg>