<svg version="1.0" xmlns="http://www.w3.org/2000/svg" width="800.000000" height="800.000000" viewBox="0 0 800.000000 800.000000" preserveAspectRatio="xMidYMid meet">
  <metadata>
    <rdf:RDF xmlns:rdf="http://www.w3.org/1999/02/22-rdf-syntax-ns#" xmlns:rdfs="http://www.w3.org/2000/01/rdf-schema#" xmlns:dc="http://purl.org/dc/elements/1.1/">
      <rdf:Description dc:format="image/svg+xml" dc:Label="1" dc:ContentProducer="001191330110MACRLGPT8B00000" dc:ProduceID="447834519" dc:ReservedCode1="mmZpQ7F4k4ZDK3fg6At2Wbhzr1c56DrYiZJvQq/j+I8=" dc:ContentPropagator="001191330110MACRLGPT8B00000" dc:PropagateID="447834519" dc:ReservedCode2="mmZpQ7F4k4ZDK3fg6At2Wbhzr1c56DrYiZJvQq/j+I8="/>
    </rdf:RDF>
  </metadata>
  <g transform="translate(53.753293,681.880997) scale(0.071635,-0.071635)" fill="#000000" stroke="none">
    <path d="M3940 6093 c-528 -37 -1027 -262 -1396 -628 -188 -187 -311 -357 -426 -590 -156 -318 -227 -653 -215 -1010 12 -333 85 -612 239 -919 165 -329 470 -658 791 -855 236 -144 520 -249 801 -297 128 -21 426 -29 561 -15 361 39 699 158 990 351 403 266 717 673 863 1120 179 545 143 1112 -102 1617 -219 449 -573 800 -1021 1014 -338 161 -731 238 -1085 212z m460 -377 c354 -61 684 -230 957 -489 246 -234 445 -591 512 -919 110 -535 -14 -1059 -352 -1493 -56 -72 -211 -229 -287 -290 -248 -200 -553 -335 -875 -387 -121 -19 -468 -16 -580 5 -426 83 -751 260 -1041 567 -324 344 -501 820 -481 1290 26 591 324 1116 817 1440 393 258 866 356 1330 276z"/>
    <path d="M2825 4616 c-59 -26 -105 -94 -105 -154 0 -15 29 -121 65 -237 111 -357 131 -421 220 -710 56 -182 95 -294 113 -319 77 -112 285 -120 365 -15 14 20 46 101 75 194 28 88 73 232 102 320 228 705 244 758 236 801 -13 68 -98 134 -173 134 -78 -1 -159 -59 -182 -132 -5 -18 -28 -94 -51 -168 -23 -74 -65 -211 -95 -305 -29 -93 -61 -199 -71 -234 -14 -49 -20 -59 -26 -45 -4 11 -58 190 -120 398 -61 208 -121 393 -133 410 -41 63 -149 93 -220 62z"/>
    <path d="M4115 4616 c-37 -17 -80 -62 -94 -99 -7 -19 -11 -236 -11 -655 l0 -627 23 -40 c59 -105 220 -116 293 -19 l29 37 2 646 3 646 -23 39 c-41 72 -146 106 -222 72z"/>
    <path d="M4568 4615 c-16 -9 -37 -33 -48 -55 -19 -38 -20 -58 -20 -686 0 -640 0 -647 21 -684 59 -104 222 -111 297 -12 27 35 27 37 30 222 l3 187 132 6 c146 5 214 23 289 75 256 176 301 560 93 790 -60 67 -117 106 -202 139 -66 26 -74 27 -318 30 -210 3 -254 1 -277 -12z m482 -357 c66 -33 90 -76 90 -156 0 -52 -5 -73 -22 -99 -34 -49 -72 -63 -177 -63 l-91 0 0 170 0 170 78 0 c61 0 87 -5 122 -22z"/>
    <path d="M7627 3339 c-9 -5 -24 -24 -33 -40 -40 -78 61 -165 133 -114 29 20 46 75 34 108 -19 49 -88 73 -134 46z"/>
  </g>
</svg>